<svg width="35" height="28" viewBox="0 0 35 28" fill="none" xmlns="http://www.w3.org/2000/svg">
<path d="M31.4024 6.9781C31.4246 7.28434 31.4246 7.59064 31.4246 7.89687C31.4246 17.2375 24.207 28 11.0153 28C6.95115 28 3.17578 26.8406 0 24.8282C0.577434 24.8937 1.13258 24.9156 1.73223 24.9156C5.08562 24.9156 8.1726 23.8 10.6377 21.8969C7.48415 21.8313 4.84137 19.7969 3.93082 16.9969C4.37502 17.0625 4.81915 17.1062 5.28557 17.1062C5.92958 17.1062 6.57367 17.0187 7.17325 16.8656C3.88645 16.2093 1.42127 13.3656 1.42127 9.93124V9.84377C2.37618 10.3688 3.48668 10.6969 4.66363 10.7406C2.73151 9.47182 1.4657 7.30622 1.4657 4.8562C1.4657 3.54373 1.82096 2.3406 2.44283 1.29059C5.97395 5.57809 11.2817 8.37804 17.2335 8.68435C17.1225 8.15934 17.0558 7.61252 17.0558 7.06563C17.0558 3.17184 20.2538 0 24.229 0C26.2944 0 28.1599 0.853123 29.4702 2.23125C31.0913 1.92501 32.6459 1.33436 34.0229 0.525004C33.4898 2.16567 32.3572 3.54379 30.8693 4.41873C32.3129 4.26568 33.712 3.87184 35 3.32502C34.023 4.72497 32.8015 5.97179 31.4024 6.9781Z" fill="white"/>
</svg>
