<svg width="742" height="301" viewBox="0 0 742 301" fill="none" xmlns="http://www.w3.org/2000/svg">
<path d="M38.5404 183.748V187.334H35.1573L35.1573 183.748H38.5404Z" fill="white"/>
<path d="M15.4178 116.267V119.852H12.0347V116.267H15.4178Z" fill="white"/>
<path d="M84.785 230.985V234.571H81.4019V230.985H84.785Z" fill="white"/>
<path d="M6.89928 20.6678L6.89928 24.2533H3.51615L3.51615 20.6678H6.89928Z" fill="white"/>
<path d="M50.7098 46.5358V50.1213H47.3267L47.3267 46.5358H50.7098Z" fill="white"/>
<path d="M33.6722 226.487V230.072H30.2891V226.487H33.6722Z" fill="white"/>
<path d="M34.8893 262.477V266.062H31.5061V262.477H34.8893Z" fill="white"/>
<path d="M115.209 252.354V255.94H111.826V252.354H115.209Z" fill="white"/>
<path d="M89.6529 183.748V187.334H86.2698V183.748H89.6529Z" fill="white"/>
<path d="M106.69 138.761V142.346H103.307V138.761H106.69Z" fill="white"/>
<path d="M55.5777 142.135V145.72H52.1946L52.1946 142.135H55.5777Z" fill="white"/>
<path d="M32.4552 69.0296V72.6151H29.0721V69.0296H32.4552Z" fill="white"/>
<path d="M79.9169 69.0296V72.6151H76.5337V69.0296H79.9169Z" fill="white"/>
<path d="M115.209 51.0345V54.62H111.826V51.0345H115.209Z" fill="white"/>
<path d="M82.3512 28.5406V32.1261H78.968V28.5406H82.3512Z" fill="white"/>
<path d="M178.114 110.729V107.143H181.497V110.729H178.114Z" fill="white"/>
<path d="M201.236 178.21V174.625H204.619V178.21H201.236Z" fill="white"/>
<path d="M131.869 63.4914V59.9059H135.252V63.4914H131.869Z" fill="white"/>
<path d="M209.755 273.809V270.224H213.138V273.809H209.755Z" fill="white"/>
<path d="M165.944 247.941V244.355H169.327V247.941H165.944Z" fill="white"/>
<path d="M182.982 67.9902V64.4047H186.365V67.9902H182.982Z" fill="white"/>
<path d="M181.765 32V28.4145H185.148V32H181.765Z" fill="white"/>
<path d="M101.445 42.1223V38.5367H104.828V42.1223H101.445Z" fill="white"/>
<path d="M127.001 110.729V107.143H130.384V110.729H127.001Z" fill="white"/>
<path d="M109.964 155.716V152.131H113.347V155.716H109.964Z" fill="white"/>
<path d="M161.076 152.342V148.757H164.459V152.342H161.076Z" fill="white"/>
<path d="M184.199 225.447V221.862H187.582V225.447H184.199Z" fill="white"/>
<path d="M136.737 225.447V221.862H140.12V225.447H136.737Z" fill="white"/>
<path d="M101.445 243.442V239.857H104.828V243.442H101.445Z" fill="white"/>
<path d="M134.303 265.936V262.351H137.686V265.936H134.303Z" fill="white"/>
<path d="M246.259 186.544V190.129H242.876V186.544H246.259Z" fill="white"/>
<path d="M223.136 119.062V122.648H219.753V119.062H223.136Z" fill="white"/>
<path d="M292.503 233.781V237.367H289.12V233.781H292.503Z" fill="white"/>
<path d="M214.618 23.4634V27.049H211.234V23.4634H214.618Z" fill="white"/>
<path d="M258.428 49.3314V52.917H255.045V49.3314H258.428Z" fill="white"/>
<path d="M241.39 229.282V232.868H238.007V229.282H241.39Z" fill="white"/>
<path d="M242.608 265.272V268.858H239.225V265.272H242.608Z" fill="white"/>
<path d="M322.927 255.15V258.736H319.544V255.15H322.927Z" fill="white"/>
<path d="M297.371 186.544V190.129H293.988V186.544H297.371Z" fill="white"/>
<path d="M314.409 141.556V145.142H311.025V141.556H314.409Z" fill="white"/>
<path d="M263.296 144.93V148.516H259.913V144.93H263.296Z" fill="white"/>
<path d="M240.173 71.8252V75.4108H236.79V71.8252H240.173Z" fill="white"/>
<path d="M287.635 71.8252V75.4108H284.252V71.8252H287.635Z" fill="white"/>
<path d="M322.927 53.8301V57.4157H319.544V53.8301H322.927Z" fill="white"/>
<path d="M290.069 31.3362V34.9218H286.686V31.3362H290.069Z" fill="white"/>
<path d="M402.974 113.524V109.939H406.357V113.524H402.974Z" fill="white"/>
<path d="M426.096 181.006V177.42H429.479V181.006H426.096Z" fill="white"/>
<path d="M356.729 66.287V62.7015H360.112V66.287H356.729Z" fill="white"/>
<path d="M434.615 276.605V273.019H437.998V276.605H434.615Z" fill="white"/>
<path d="M390.804 250.737V247.151H394.187V250.737H390.804Z" fill="white"/>
<path d="M407.842 70.7859V67.2003H411.225V70.7859H407.842Z" fill="white"/>
<path d="M406.625 34.7957V31.2101H410.008V34.7957H406.625Z" fill="white"/>
<path d="M326.305 44.9179V41.3324H329.688V44.9179H326.305Z" fill="white"/>
<path d="M351.861 113.524V109.939H355.244V113.524H351.861Z" fill="white"/>
<path d="M334.824 158.512V154.926H338.207V158.512H334.824Z" fill="white"/>
<path d="M385.936 155.138V151.552H389.32V155.138H385.936Z" fill="white"/>
<path d="M409.058 228.243V224.657H412.442V228.243H409.058Z" fill="white"/>
<path d="M361.597 228.243V224.657H364.98V228.243H361.597Z" fill="white"/>
<path d="M326.305 246.238V242.652H329.688V246.238H326.305Z" fill="white"/>
<path d="M359.163 268.732V265.146H362.546V268.732H359.163Z" fill="white"/>
<path d="M476.16 190.271V193.857H472.777V190.271H476.16Z" fill="white"/>
<path d="M453.038 122.79V126.375H449.655V122.79H453.038Z" fill="white"/>
<path d="M522.405 237.509V241.094H519.022V237.509H522.405Z" fill="white"/>
<path d="M444.519 27.191V30.7765H441.136V27.191H444.519Z" fill="white"/>
<path d="M488.33 53.059V56.6445H484.947V53.059H488.33Z" fill="white"/>
<path d="M471.293 233.01V236.595H467.909V233.01H471.293Z" fill="white"/>
<path d="M472.509 269V272.586H469.126V269H472.509Z" fill="white"/>
<path d="M552.829 258.878V262.463H549.446V258.878H552.829Z" fill="white"/>
<path d="M527.273 190.271V193.857H523.89V190.271H527.273Z" fill="white"/>
<path d="M544.31 145.284V148.869H540.927V145.284H544.31Z" fill="white"/>
<path d="M493.198 148.658V152.243H489.814V148.658H493.198Z" fill="white"/>
<path d="M470.076 75.5528V79.1383H466.692V75.5528H470.076Z" fill="white"/>
<path d="M517.537 75.5528V79.1383H514.154V75.5528H517.537Z" fill="white"/>
<path d="M552.829 57.5577V61.1432H549.446V57.5577H552.829Z" fill="white"/>
<path d="M519.971 35.0638V38.6494H516.588V35.0638H519.971Z" fill="white"/>
<path d="M628.842 111.66V108.075H632.225V111.66H628.842Z" fill="white"/>
<path d="M651.964 179.142V175.556H655.347V179.142H651.964Z" fill="white"/>
<path d="M582.597 64.4233V60.8377H585.98V64.4233H582.597Z" fill="white"/>
<path d="M660.483 274.741V271.155H663.866V274.741H660.483Z" fill="white"/>
<path d="M616.672 248.873V245.287H620.056V248.873H616.672Z" fill="white"/>
<path d="M633.71 68.9221V65.3365H637.093V68.9221H633.71Z" fill="white"/>
<path d="M632.493 32.9319V29.3463H635.876V32.9319H632.493Z" fill="white"/>
<path d="M552.173 43.0541V39.4686H555.557V43.0541H552.173Z" fill="white"/>
<path d="M577.729 111.66V108.075H581.113V111.66H577.729Z" fill="white"/>
<path d="M560.692 156.648V153.063H564.075V156.648H560.692Z" fill="white"/>
<path d="M611.805 153.274V149.689H615.188V153.274H611.805Z" fill="white"/>
<path d="M634.927 226.379V222.793H638.31V226.379H634.927Z" fill="white"/>
<path d="M587.465 226.379V222.793H590.848V226.379H587.465Z" fill="white"/>
<path d="M552.173 244.374V240.789H555.557V244.374H552.173Z" fill="white"/>
<path d="M585.031 266.868V263.282H588.415V266.868H585.031Z" fill="white"/>
<path d="M663.712 182.816V186.402H660.329V182.816H663.712Z" fill="white"/>
<path d="M640.589 115.335V118.92H637.206V115.335H640.589Z" fill="white"/>
<path d="M709.956 230.053V233.639H706.573V230.053H709.956Z" fill="white"/>
<path d="M632.071 19.7359V23.3214H628.688V19.7359H632.071Z" fill="white"/>
<path d="M675.881 45.6039V49.1894H672.498V45.6039H675.881Z" fill="white"/>
<path d="M658.844 225.555V229.14H655.461V225.555H658.844Z" fill="white"/>
<path d="M660.061 261.545V265.13H656.678V261.545H660.061Z" fill="white"/>
<path d="M740.38 251.423V255.008H736.997V251.423H740.38Z" fill="white"/>
<path d="M714.824 182.816V186.402H711.441V182.816H714.824Z" fill="white"/>
<path d="M731.862 137.829V141.414H728.479V137.829H731.862Z" fill="white"/>
<path d="M680.749 141.203V144.788H677.366V141.203H680.749Z" fill="white"/>
<path d="M657.627 68.0977V71.6832H654.244V68.0977H657.627Z" fill="white"/>
<path d="M705.089 68.0977V71.6832H701.706V68.0977H705.089Z" fill="white"/>
<path d="M740.38 50.1026V53.6881H736.997V50.1026H740.38Z" fill="white"/>
<path d="M707.523 27.6087V31.1942H704.139V27.6087H707.523Z" fill="white"/>
</svg>
