<svg width="81" height="81" viewBox="0 0 81 81" fill="none" xmlns="http://www.w3.org/2000/svg">
<path d="M40.5 0C18.144 0 0 18.144 0 40.5C0 62.856 18.144 81 40.5 81C62.856 81 81 62.856 81 40.5C81 18.144 62.856 0 40.5 0ZM8.1 40.5C8.1 38.0295 8.424 35.5995 8.9505 33.291L28.3095 52.65V56.7C28.3095 61.155 31.9545 64.8 36.4095 64.8V72.6165C20.493 70.5915 8.1 56.9835 8.1 40.5ZM64.3545 62.37C63.3015 59.0895 60.3045 56.7 56.6595 56.7H52.6095V44.55C52.6095 42.3225 50.787 40.5 48.5595 40.5H24.2595V32.4H32.3595C34.587 32.4 36.4095 30.5775 36.4095 28.35V20.25H44.5095C48.9645 20.25 52.6095 16.605 52.6095 12.15V10.4895C64.476 15.2685 72.9 26.9325 72.9 40.5C72.9 48.924 69.6195 56.619 64.3545 62.37Z" fill="white"/>
</svg>
